<?xml version="1.0" encoding="UTF-8"?>
<svg id="Capa_1" data-name="Capa 1" xmlns="http://www.w3.org/2000/svg" version="1.1" viewBox="0 0 364.99 357.39">
  <defs>
    <style>
      .cls-1 {
        fill: #b905fa;
      }

      .cls-1, .cls-2 {
        stroke-width: 0px;
      }

      .cls-2 {
        fill: #8218a9;
      }
    </style>
  </defs>
  <path class="cls-1" d="M252.53,107.03c10.98,2.92,22.3,3.8,33.47,5.59,16.54,2.65,33.13,4.99,49.7,7.47,3.62.54,7.23,1.09,10.83,1.72,10.41,1.83,15.47,6.7,17.83,17,.07.32.37.58.57.87v6.4c-1.95,6.04-6.06,10.41-10.53,14.75-18.78,18.25-37,37.09-56.13,54.96-9.65,9.01-11.96,18.66-9.35,31.22,4.35,20.89,7.57,42.03,11.25,63.06,1.06,6.04,1.92,12.12,3.11,18.14,1.69,8.52-.78,15.58-7.55,20.78-6.9,5.32-14.62,6.54-22.61,2.35-21.48-11.25-42.92-22.6-64.37-33.91-5.44-2.87-10.91-5.69-16.32-8.62-6.2-3.35-12.25-3.42-18.59-.14-25.63,13.27-51.34,26.38-77.02,39.56-4.73,2.42-9.3,5.02-14.97,4.87-11.63-.31-21.63-12.07-19.66-23.58,3.69-21.51,7.49-43,11.25-64.5.06-.32.33-.61.5-.91,14.9.47,29.67-.55,44.31-3.51,17.07-3.45,33.11-9.66,48.17-18.22,14.19-8.07,26.9-18.08,38.2-30.04,10.96-11.59,20.49-24.09,27.8-38.21,9.84-19.03,16.22-39.14,18.11-60.6.19-2.14-.23-4.83,1.99-6.5Z"/>
  <path class="cls-2" d="M252.53,107.03c-2.21,1.67-1.8,4.36-1.99,6.5-1.9,21.46-8.27,41.58-18.11,60.6-7.3,14.12-16.84,26.62-27.8,38.21-11.3,11.95-24.01,21.97-38.2,30.04-15.06,8.56-31.1,14.78-48.17,18.22-14.64,2.96-29.41,3.98-44.31,3.51,1.31-7.92,2.5-15.87,3.96-23.76,1.61-8.71-.46-16.05-6.94-22.28-21.27-20.42-42.5-40.9-63.63-61.47-9.16-8.92-8.68-22.3.77-30.38,3.89-3.33,8.69-4.13,13.49-4.85,26.17-3.91,52.36-7.69,78.52-11.68,5.45-.83,11.05-1.1,16.12-3.84,3.06-1.66,5.25-3.92,6.78-6.99,13.72-27.55,27.54-55.05,41.16-82.65,3.85-7.8,9.83-12.23,18.41-12.16,8.74.06,15.3,4.34,19.28,12.29,10.96,21.92,21.91,43.83,32.87,65.75,1.69,3.39,3.53,6.71,5.04,10.18,2.72,6.29,7.03,11.13,12.77,14.77Z"/>
</svg>